<svg width="49" height="42" viewBox="0 0 49 42" fill="none" xmlns="http://www.w3.org/2000/svg">
<rect width="49" height="42" fill="#DDDDDD"/>
<rect x="-11" y="-17" width="70" height="75" fill="#0E1330"/>
<path d="M23.0027 0.080234C24.6268 -0.146394 26.3171 0.108562 27.7902 0.826217C29.7543 1.76106 31.3218 3.48909 32.0583 5.53818C32.9932 8.06886 32.5871 11.0622 30.9913 13.2435C29.5749 15.2737 27.2047 16.6052 24.7307 16.7468C22.2661 16.9357 19.7544 15.9347 18.0735 14.1312C16.9782 12.9791 16.2227 11.506 15.9395 9.93854C15.5429 7.91778 15.9395 5.75537 17.0254 4.00845C18.3096 1.89326 20.557 0.40129 23.0027 0.080234Z" fill="white"/>
<path d="M8.61191 7.87058C10.0189 7.68173 11.492 7.99334 12.7101 8.73932C13.8716 9.44753 14.7875 10.5429 15.288 11.8177C15.8168 13.168 15.8546 14.6977 15.3919 16.067C14.7592 18.0027 13.1161 19.5702 11.152 20.1274C9.6695 20.5523 8.02645 20.4012 6.6478 19.7119C5.29748 19.0414 4.21155 17.8705 3.64498 16.4824C3.0973 15.1699 3.02176 13.659 3.43724 12.2993C4.09824 9.96689 6.21343 8.15387 8.61191 7.87058Z" fill="#B756FE"/>
<path d="M38.1584 7.8611C39.5182 7.70058 40.9346 7.98386 42.115 8.69207C43.3048 9.40028 44.2585 10.5145 44.759 11.8082C45.335 13.2718 45.335 14.9527 44.7401 16.4069C44.1829 17.8327 43.0781 19.0225 41.7089 19.7024C40.708 20.2123 39.556 20.4201 38.4417 20.3445C36.4587 20.2123 34.589 19.0414 33.5692 17.3417C32.2283 15.2454 32.37 12.3464 33.8714 10.3729C34.8723 8.9848 36.4587 8.0594 38.1584 7.8611Z" fill="#B756FE"/>
<path d="M19.1784 18.5315C19.8299 18.4749 20.4909 18.4937 21.1425 18.4937C23.5693 18.4937 25.9867 18.4937 28.4135 18.4937C30.0943 18.4843 31.7657 19.1075 33.031 20.2218C34.2208 21.2605 35.0518 22.7052 35.3067 24.2633C35.4484 25.0093 35.4106 25.7742 35.42 26.539C35.42 30.8827 35.42 35.217 35.42 39.5607C35.4389 40.0989 35.1179 40.6372 34.6174 40.8638C34.2775 41.0338 33.8809 40.996 33.5126 41.0054C27.1198 41.0054 20.7364 41.0054 14.3437 41.0054C13.5693 41.0432 12.8706 40.3444 12.9178 39.5701C12.9178 34.8865 12.9178 30.1934 12.9178 25.5098C12.9178 23.9895 13.4183 22.4692 14.3437 21.2605C15.4957 19.7308 17.2898 18.7204 19.1784 18.5315Z" fill="white"/>
<path d="M2.26628 23.98C3.49384 22.8374 5.13689 22.1764 6.80827 22.1387C8.11138 22.1198 9.41449 22.1292 10.7176 22.1292C10.3021 23.3001 10.1133 24.5371 10.1227 25.7836C10.1227 29.9101 10.1227 34.0272 10.1227 38.1537C10.1321 39.1074 10.0472 40.08 10.3588 40.996C8.72517 40.996 7.101 40.996 5.46739 40.996C4.77807 40.9865 4.08874 41.0243 3.39942 40.911C2.61566 40.7599 1.88856 40.3916 1.30311 39.844C0.50047 39.0885 0.0472141 37.9932 0 36.8789V28.9375C0.0566569 27.0678 0.878182 25.2359 2.26628 23.98Z" fill="#B756FE"/>
<path d="M37.6296 22.1293C38.7817 22.1198 39.9337 22.1293 41.0763 22.1293C41.775 22.1293 42.4832 22.1859 43.1537 22.3653C44.674 22.7619 46.0432 23.7062 46.978 24.9715C47.8279 26.1141 48.3 27.5117 48.3378 28.9375V36.8789C48.2906 37.5116 48.1678 38.1537 47.8657 38.7203C47.2802 39.8723 46.1282 40.7222 44.8534 40.9299C44.1924 41.0338 43.5314 40.996 42.861 41.0055C41.2274 41.0055 39.6032 41.0055 37.9696 41.0055C38.1301 40.4861 38.2151 39.9384 38.2057 39.3907C38.2057 34.7921 38.2057 30.1934 38.2057 25.6042C38.2245 24.4144 38.0168 23.2435 37.6296 22.1293Z" fill="#B756FE"/>
</svg>
